<svg width="123" height="309" viewBox="0 0 123 309" version="1.1" xmlns="http://www.w3.org/2000/svg" xmlns:xlink="http://www.w3.org/1999/xlink">
<title>Mask Group</title>
<desc>Created using Figma</desc>
<g id="Canvas" transform="matrix(3 0 0 3 -14793 -3624)">
<g id="Mask Group">
<mask id="mask0_alpha" mask-type="alpha">
<g id="Rectangle 4">
<use xlink:href="#path0_fill" transform="matrix(1.12757e-16 1 -1 1.12757e-16 4975.11 1194)" fill="#C4C4C4"/>
</g>
</mask>
<g id="Group 2" opacity="0.3" mask="url(#mask0_alpha)">
<g id="Vector">
<use xlink:href="#path1_stroke" transform="matrix(1.12807e-16 1 -1 1.12641e-16 4970.24 1209.07)" fill="#2F80ED"/>
</g>
<g id="Vector">
<use xlink:href="#path1_stroke" transform="matrix(1.13191e-16 1 -1 1.1186e-16 4964.46 1209.07)" fill="#2F80ED"/>
</g>
<g id="Vector">
<use xlink:href="#path1_stroke" transform="matrix(1.13191e-16 1 -1 1.1186e-16 4958.42 1209.07)" fill="#2F80ED"/>
</g>
<g id="Vector">
<use xlink:href="#path1_stroke" transform="matrix(1.13191e-16 1 -1 1.1186e-16 4952.64 1209.07)" fill="#2F80ED"/>
</g>
<g id="Vector">
<use xlink:href="#path2_stroke" transform="matrix(1.13191e-16 1 -1 1.1186e-16 4946.6 1209.07)" fill="#2F80ED"/>
</g>
<g id="Vector">
<use xlink:href="#path1_stroke" transform="matrix(1.13191e-16 1 -1 1.1186e-16 4940.88 1209.07)" fill="#2F80ED"/>
</g>
<g id="Vector">
<use xlink:href="#path1_stroke" transform="matrix(1.13191e-16 1 -1 1.1186e-16 4935.09 1209.07)" fill="#2F80ED"/>
</g>
</g>
</g>
</g>
<defs>
<path id="path0_fill" d="M 0 0L 116.27 0L 116.27 44.11L 0 44.11L 0 0Z"/>
<path id="path1_stroke" d="M 0.423945 3.84153C -0.0762526 3.60739 -0.67155 3.82308 -0.905688 4.32328C -1.13983 4.82347 -0.924143 5.41877 -0.423945 5.65291L 0.423945 3.84153ZM 16.9692 8.48517L 17.1234 7.49712L 16.8366 7.49399L 16.9692 8.48517ZM 50.9076 0.0747874L 50.9076 1.07479L 50.9924 1.07119L 50.9076 0.0747874ZM 71.8695 4.74722L 71.3798 5.61909L 71.8695 4.74722ZM 155.191 5.62898C 155.678 5.36846 155.861 4.7625 155.601 4.27551C 155.34 3.78853 154.734 3.60495 154.247 3.86546L 155.191 5.62898ZM -0.423945 5.65291C 7.71257 9.46154 14.5596 9.81633 17.1017 9.47634L 16.8366 7.49399C 14.7206 7.777 8.25843 7.50879 0.423945 3.84153L -0.423945 5.65291ZM 16.815 9.47321C 19.0605 9.82357 25.2534 9.44947 33.3641 5.65291L 32.5162 3.84153C 24.656 7.52087 18.8706 7.76975 17.1234 7.49712L 16.815 9.47321ZM 33.3641 5.65291C 41.2161 1.97748 48.3913 1.07479 50.9076 1.07479L 50.9076 -0.925213C 48.1002 -0.925213 40.6353 0.0410655 32.5162 3.84153L 33.3641 5.65291ZM 50.9924 1.07119C 54.5187 0.771067 63.619 1.25976 71.3798 5.61909L 72.3592 3.87535C 64.149 -0.736396 54.6165 -1.24448 50.8228 -0.92161L 50.9924 1.07119ZM 71.3798 5.61909C 77.0249 8.79004 84.2689 9.48517 87.8405 9.48517L 87.8405 7.48517C 84.4079 7.48517 77.5671 6.80067 72.3592 3.87535L 71.3798 5.61909ZM 87.8405 9.48517C 92.2631 9.48517 97.0629 9.47757 105.234 5.65291L 104.386 3.84153C 96.5855 7.49277 92.1139 7.48517 87.8405 7.48517L 87.8405 9.48517ZM 105.234 5.65291C 113.143 1.95043 117.02 1.07479 121.779 1.07479L 121.779 -0.925213C 116.623 -0.925213 112.447 0.0681229 104.386 3.84153L 105.234 5.65291ZM 121.779 1.07479C 126.977 1.06616 133.015 2.69611 139.322 5.65291L 140.17 3.84153C 133.701 0.817613 127.239 -0.916584 121.779 -0.925213L 121.779 1.07479ZM 139.322 5.65291C 146.067 8.80997 152.66 6.98271 155.191 5.62898L 154.247 3.86546C 152.12 5.0037 146.202 6.66519 140.17 3.84153L 139.322 5.65291Z"/>
<path id="path2_stroke" d="M 0.423945 3.84153C -0.0762526 3.60739 -0.671549 3.82308 -0.905688 4.32328C -1.13983 4.82347 -0.924143 5.41877 -0.423945 5.65291L 0.423945 3.84153ZM 16.9692 8.48517L 17.1234 7.49712L 16.8366 7.49399L 16.9692 8.48517ZM 50.9076 0.0747874L 50.9076 1.07479L 50.9924 1.07119L 50.9076 0.0747874ZM 71.8695 4.74722L 72.3592 3.87535L 71.8695 4.74722ZM 155.191 5.62898C 155.678 5.36846 155.861 4.7625 155.601 4.27552C 155.34 3.78853 154.734 3.60495 154.247 3.86546L 155.191 5.62898ZM -0.423945 5.65291C 7.71257 9.46155 14.5596 9.81633 17.1017 9.47634L 16.8366 7.49399C 14.7206 7.777 8.25843 7.50879 0.423945 3.84153L -0.423945 5.65291ZM 16.815 9.47321C 19.0605 9.82357 25.2534 9.44947 33.3641 5.65291L 32.5162 3.84153C 24.656 7.52087 18.8706 7.76975 17.1234 7.49712L 16.815 9.47321ZM 33.3641 5.65291C 41.2161 1.97748 48.3913 1.07479 50.9076 1.07479L 50.9076 -0.925213C 48.1002 -0.925213 40.6353 0.0410654 32.5162 3.84153L 33.3641 5.65291ZM 50.9924 1.07119C 54.5187 0.771067 63.619 1.25976 71.3798 5.61909L 72.3592 3.87535C 64.1491 -0.736396 54.6165 -1.24448 50.8228 -0.92161L 50.9924 1.07119ZM 71.3798 5.61909C 77.0249 8.79004 84.2689 9.48517 87.8405 9.48517L 87.8405 7.48517C 84.4079 7.48517 77.5671 6.80067 72.3592 3.87535L 71.3798 5.61909ZM 87.8405 9.48517C 92.2631 9.48517 97.0629 9.47757 105.234 5.65291L 104.386 3.84153C 96.5855 7.49277 92.1139 7.48517 87.8405 7.48517L 87.8405 9.48517ZM 105.234 5.65291C 113.143 1.95043 117.02 1.07479 121.779 1.07479L 121.779 -0.925213C 116.623 -0.925213 112.447 0.0681228 104.386 3.84153L 105.234 5.65291ZM 121.779 1.07479C 126.977 1.06616 133.015 2.69611 139.322 5.65291L 140.17 3.84153C 133.701 0.817613 127.239 -0.916584 121.779 -0.925213L 121.779 1.07479ZM 139.322 5.65291C 146.067 8.80997 152.66 6.98271 155.191 5.62898L 154.247 3.86546C 152.12 5.0037 146.202 6.66519 140.17 3.84153L 139.322 5.65291Z"/>
</defs>
</svg>
