<svg width="1244" height="1020" viewBox="0 0 1244 1020" version="1.1" xmlns="http://www.w3.org/2000/svg" xmlns:xlink="http://www.w3.org/1999/xlink">
<title>oli</title>
<desc>Created using Figma</desc>
<g id="Canvas" transform="translate(-1725 -2976)">
<g id="oli">
<mask id="mask0_alpha" mask-type="alpha">
<g id="Rectangle 5">
<use xlink:href="#path0_fill" transform="translate(1660 2868)" fill="#C4C4C4"/>
</g>
</mask>
<g id="Group 2" opacity="0.75" mask="url(#mask0_alpha)">
<g id="Vector">
<use xlink:href="#path1_stroke" transform="translate(1644.06 2979.83)" fill="#E3F3FF"/>
</g>
<g id="Vector">
<use xlink:href="#path1_stroke" transform="translate(1644.05 3040.02)" fill="#E3F3FF"/>
</g>
<g id="Vector">
<use xlink:href="#path1_stroke" transform="translate(1644.05 3102.82)" fill="#E3F3FF"/>
</g>
<g id="Vector">
<use xlink:href="#path1_stroke" transform="translate(1644.05 3163.01)" fill="#E3F3FF"/>
</g>
<g id="Vector">
<use xlink:href="#path2_stroke" transform="translate(1644.05 3225.81)" fill="#E3F3FF"/>
</g>
<g id="Vector">
<use xlink:href="#path1_stroke" transform="translate(1644.05 3285.38)" fill="#E3F3FF"/>
</g>
<g id="Vector">
<use xlink:href="#path1_stroke" transform="translate(1644.05 3345.56)" fill="#E3F3FF"/>
</g>
<g id="Vector">
<use xlink:href="#path1_stroke" transform="translate(1644.05 3408.37)" fill="#E3F3FF"/>
</g>
<g id="Vector">
<use xlink:href="#path1_stroke" transform="translate(1644.05 3468.55)" fill="#E3F3FF"/>
</g>
<g id="Vector">
<use xlink:href="#path2_stroke" transform="translate(1644.05 3531.35)" fill="#E3F3FF"/>
</g>
<g id="Vector">
<use xlink:href="#path1_stroke" transform="translate(1644.05 3590.92)" fill="#E3F3FF"/>
</g>
<g id="Vector">
<use xlink:href="#path1_stroke" transform="translate(1644.05 3651.11)" fill="#E3F3FF"/>
</g>
<g id="Vector">
<use xlink:href="#path1_stroke" transform="translate(1644.05 3713.91)" fill="#E3F3FF"/>
</g>
<g id="Vector">
<use xlink:href="#path1_stroke" transform="translate(1644.05 3774.1)" fill="#E3F3FF"/>
</g>
<g id="Vector">
<use xlink:href="#path2_stroke" transform="translate(1644.05 3836.9)" fill="#E3F3FF"/>
</g>
<g id="Vector">
<use xlink:href="#path1_stroke" transform="translate(1644.05 3896.47)" fill="#E3F3FF"/>
</g>
<g id="Vector">
<use xlink:href="#path1_stroke" transform="translate(1644.05 3956.65)" fill="#E3F3FF"/>
</g>
</g>
</g>
</g>
<defs>
<path id="path0_fill" d="M 0 0L 1374 20.4677L 1374 1128L 0 1128L 0 0Z"/>
<path id="path1_stroke" d="M 1.45673 46.7777C 0.00832106 45.9732 -1.81805 46.4952 -2.62258 47.9436C -3.42711 49.392 -2.90514 51.2184 -1.45673 52.0229L 1.45673 46.7777ZM 148.81 88.298L 149.356 85.3481L 148.34 85.335L 148.81 88.298ZM 446.429 0.77825L 446.429 3.77825L 446.731 3.76307L 446.429 0.77825ZM 630.253 49.4003L 628.589 51.8966L 630.253 49.4003ZM 1358.4 51.9331C 1359.8 51.0451 1360.22 49.1913 1359.33 47.7925C 1358.44 46.3937 1356.59 45.9796 1355.19 46.8676L 1358.4 51.9331ZM -1.45673 52.0229C 69.0584 91.1911 128.089 94.624 149.28 91.2609L 148.34 85.335C 128.681 88.4549 70.9978 85.4049 1.45673 46.7777L -1.45673 52.0229ZM 148.264 91.2478C 166.663 94.6545 219.899 91.1406 290.323 52.0229L 287.409 46.7777C 217.777 85.4554 165.971 88.4244 149.356 85.3481L 148.264 91.2478ZM 290.323 52.0229C 359.919 13.3652 423.612 3.77825 446.429 3.77825L 446.429 -2.22175C 422.561 -2.22175 357.869 7.64017 287.409 46.7777L 290.323 52.0229ZM 446.731 3.76307C 478.331 0.571689 559.285 5.70181 628.589 51.8966L 631.917 46.904C 561.165 -0.25555 478.72 -5.49813 446.128 -2.20657L 446.731 3.76307ZM 628.589 51.8966C 676.883 84.0869 739.329 91.298 770.309 91.298L 770.309 85.298C 739.867 85.298 678.798 78.1525 631.917 46.904L 628.589 51.8966ZM 770.309 91.298C 808.717 91.298 849.936 91.2603 920.576 52.0229L 917.662 46.7777C 848.246 85.3356 808.161 85.298 770.309 85.298L 770.309 91.298ZM 920.576 52.0229C 990.371 13.2547 1025.17 3.77825 1067.93 3.77825L 1067.93 -2.22175C 1023.75 -2.22175 987.924 7.75062 917.662 46.7777L 920.576 52.0229ZM 1067.93 3.77825C 1113.97 3.77825 1168.27 21.0463 1224.04 52.0229L 1226.95 46.7777C 1170.67 15.5181 1115.35 -2.22175 1067.93 -2.22175L 1067.93 3.77825ZM 1224.04 52.0229C 1281.28 83.8193 1337.33 65.3091 1358.4 51.9331L 1355.19 46.8676C 1335.41 59.4233 1281.75 77.2176 1226.95 46.7777L 1224.04 52.0229Z"/>
<path id="path2_stroke" d="M 1.45673 46.7777C 0.00832124 45.9732 -1.81805 46.4952 -2.62258 47.9436C -3.42711 49.392 -2.90514 51.2184 -1.45673 52.0229L 1.45673 46.7777ZM 148.81 88.298L 149.356 85.3481L 148.34 85.3351L 148.81 88.298ZM 446.429 0.77825L 446.429 3.77825L 446.731 3.76307L 446.429 0.77825ZM 630.253 49.4003L 631.917 46.904L 630.253 49.4003ZM 1358.4 51.9331C 1359.8 51.0451 1360.22 49.1913 1359.33 47.7925C 1358.44 46.3937 1356.59 45.9796 1355.19 46.8676L 1358.4 51.9331ZM -1.45673 52.0229C 69.0584 91.1911 128.089 94.624 149.28 91.2609L 148.34 85.3351C 128.681 88.4549 70.9978 85.4049 1.45673 46.7777L -1.45673 52.0229ZM 148.264 91.2478C 166.663 94.6545 219.899 91.1406 290.323 52.0229L 287.409 46.7777C 217.777 85.4554 165.971 88.4244 149.356 85.3481L 148.264 91.2478ZM 290.323 52.0229C 359.919 13.3652 423.612 3.77825 446.429 3.77825L 446.429 -2.22175C 422.561 -2.22175 357.869 7.64017 287.409 46.7777L 290.323 52.0229ZM 446.731 3.76307C 478.331 0.571689 559.285 5.70181 628.589 51.8966L 631.917 46.904C 561.165 -0.255549 478.72 -5.49813 446.128 -2.20657L 446.731 3.76307ZM 628.589 51.8966C 676.883 84.0869 739.329 91.298 770.309 91.298L 770.309 85.298C 739.867 85.298 678.798 78.1525 631.917 46.904L 628.589 51.8966ZM 770.309 91.298C 808.717 91.298 849.936 91.2603 920.576 52.0229L 917.662 46.7777C 848.246 85.3356 808.161 85.298 770.309 85.298L 770.309 91.298ZM 920.576 52.0229C 990.371 13.2547 1025.17 3.77825 1067.93 3.77825L 1067.93 -2.22175C 1023.75 -2.22175 987.924 7.75062 917.662 46.7777L 920.576 52.0229ZM 1067.93 3.77825C 1113.97 3.77825 1168.27 21.0463 1224.04 52.0229L 1226.95 46.7777C 1170.67 15.5181 1115.35 -2.22175 1067.93 -2.22175L 1067.93 3.77825ZM 1224.04 52.0229C 1281.28 83.8193 1337.33 65.3092 1358.4 51.9331L 1355.19 46.8676C 1335.41 59.4233 1281.75 77.2176 1226.95 46.7777L 1224.04 52.0229Z"/>
</defs>
</svg>
