<svg width="123" height="315" viewBox="0 0 123 315" version="1.1" xmlns="http://www.w3.org/2000/svg" xmlns:xlink="http://www.w3.org/1999/xlink">
<title>Mask Group</title>
<desc>Created using Figma</desc>
<g id="Canvas" transform="matrix(3 0 0 3 -14565 -3693)">
<g id="Mask Group">
<mask id="mask0_alpha" mask-type="alpha">
<g id="Rectangle 4">
<use xlink:href="#path0_fill" transform="matrix(0.00938206 0.999956 0.999956 -0.00938206 4850.53 1218.82)" fill="#C4C4C4"/>
</g>
</mask>
<g id="Group 2" opacity="0.3" mask="url(#mask0_alpha)">
<g id="Vector">
<use xlink:href="#path1_stroke" transform="matrix(0.00938206 0.999956 0.999956 -0.00938206 4855.54 1233.84)" fill="#2F80ED"/>
</g>
<g id="Vector">
<use xlink:href="#path1_stroke" transform="matrix(0.00938206 0.999956 0.999956 -0.00938206 4861.33 1233.79)" fill="#2F80ED"/>
</g>
<g id="Vector">
<use xlink:href="#path1_stroke" transform="matrix(0.00938206 0.999956 0.999956 -0.00938206 4867.36 1233.73)" fill="#2F80ED"/>
</g>
<g id="Vector">
<use xlink:href="#path2_stroke" transform="matrix(0.00938206 0.999956 0.999956 -0.00938206 4873.15 1233.68)" fill="#2F80ED"/>
</g>
<g id="Vector">
<use xlink:href="#path3_stroke" transform="matrix(0.00938206 0.999956 0.999956 -0.00938206 4879.18 1233.62)" fill="#2F80ED"/>
</g>
<g id="Vector">
<use xlink:href="#path1_stroke" transform="matrix(0.00938206 0.999956 0.999956 -0.00938206 4884.91 1233.57)" fill="#2F80ED"/>
</g>
<g id="Vector">
<use xlink:href="#path1_stroke" transform="matrix(0.00938206 0.999956 0.999956 -0.00938206 4890.69 1233.51)" fill="#2F80ED"/>
</g>
</g>
</g>
</g>
<defs>
<path id="path0_fill" d="M 0 0L 116.27 0L 116.27 44.1135L 0 44.1135L 0 0Z"/>
<path id="path1_stroke" d="M 0.423972 3.84192C -0.0762189 3.60776 -0.671522 3.82343 -0.905675 4.32362C -1.13983 4.82381 -0.924163 5.41912 -0.423972 5.65327L 0.423972 3.84192ZM 16.9692 8.48583L 17.1234 7.49779L 16.8366 7.49466L 16.9692 8.48583ZM 50.9076 0.0747933L 50.9076 1.07479L 50.9924 1.07119L 50.9076 0.0747933ZM 71.8696 4.74759L 71.3798 5.61945L 71.8696 4.74759ZM 155.191 5.62933C 155.678 5.3688 155.862 4.76283 155.601 4.27586C 155.341 3.78889 154.735 3.60532 154.248 3.86585L 155.191 5.62933ZM -0.423972 5.65327C 7.71256 9.46221 14.5596 9.81702 17.1018 9.47701L 16.8366 7.49466C 14.7206 7.77768 8.25846 7.50946 0.423972 3.84192L -0.423972 5.65327ZM 16.815 9.47388C 19.0605 9.82427 25.2535 9.45013 33.3642 5.65327L 32.5163 3.84192C 24.656 7.52154 18.8707 7.77044 17.1234 7.49779L 16.815 9.47388ZM 33.3642 5.65327C 41.2162 1.97756 48.3914 1.07479 50.9076 1.07479L 50.9076 -0.925207C 48.1002 -0.925207 40.6353 0.04115 32.5163 3.84192L 33.3642 5.65327ZM 50.9924 1.07119C 54.5188 0.77105 63.619 1.25978 71.3798 5.61945L 72.3594 3.87574C 64.1492 -0.736374 54.6166 -1.2445 50.8228 -0.921604L 50.9924 1.07119ZM 71.3798 5.61945C 77.025 8.79065 84.269 9.48583 87.8406 9.48583L 87.8406 7.48583C 84.408 7.48583 77.5673 6.80129 72.3594 3.87574L 71.3798 5.61945ZM 87.8406 9.48583C 92.2633 9.48583 97.0631 9.47823 105.234 5.65327L 104.386 3.84192C 96.5856 7.49344 92.1141 7.48583 87.8406 7.48583L 87.8406 9.48583ZM 105.234 5.65327C 113.144 1.9505 117.02 1.07479 121.779 1.07479L 121.779 -0.925207C 116.623 -0.925207 112.447 0.0682111 104.386 3.84192L 105.234 5.65327ZM 121.779 1.07479C 126.977 1.06616 133.015 2.69624 139.322 5.65327L 140.17 3.84192C 133.701 0.817759 127.239 -0.916577 121.779 -0.925207L 121.779 1.07479ZM 139.322 5.65327C 146.067 8.81058 152.661 6.98318 155.191 5.62933L 154.248 3.86585C 152.12 5.00417 146.203 6.66579 140.17 3.84192L 139.322 5.65327Z"/>
<path id="path2_stroke" d="M 0.423972 3.84192C -0.0762189 3.60777 -0.671522 3.82343 -0.905675 4.32362C -1.13983 4.82381 -0.924163 5.41912 -0.423972 5.65327L 0.423972 3.84192ZM 16.9692 8.48583L 17.1234 7.49779L 16.8366 7.49466L 16.9692 8.48583ZM 50.9076 0.0747933L 50.9076 1.07479L 50.9924 1.07119L 50.9076 0.0747933ZM 71.8696 4.74759L 72.3594 3.87574L 72.3594 3.87574L 71.8696 4.74759ZM 155.191 5.62933C 155.678 5.3688 155.862 4.76283 155.601 4.27586C 155.341 3.78889 154.735 3.60532 154.248 3.86585L 155.191 5.62933ZM -0.423972 5.65327C 7.71256 9.46221 14.5596 9.81702 17.1018 9.47701L 16.8366 7.49466C 14.7206 7.77768 8.25846 7.50946 0.423972 3.84192L -0.423972 5.65327ZM 16.815 9.47388C 19.0605 9.82427 25.2535 9.45013 33.3642 5.65327L 32.5163 3.84192C 24.656 7.52154 18.8707 7.77044 17.1234 7.49779L 16.815 9.47388ZM 33.3642 5.65327C 41.2162 1.97756 48.3914 1.07479 50.9076 1.07479L 50.9076 -0.925207C 48.1002 -0.925207 40.6353 0.0411501 32.5163 3.84192L 33.3642 5.65327ZM 50.9924 1.07119C 54.5188 0.77105 63.619 1.25978 71.3798 5.61945L 72.3594 3.87574C 64.1492 -0.736373 54.6165 -1.2445 50.8228 -0.921604L 50.9924 1.07119ZM 71.3798 5.61945C 77.025 8.79065 84.269 9.48583 87.8406 9.48583L 87.8406 7.48583C 84.408 7.48583 77.5673 6.80129 72.3594 3.87574L 71.3798 5.61945ZM 87.8406 9.48583C 92.2633 9.48583 97.0631 9.47823 105.234 5.65327L 104.386 3.84192C 96.5856 7.49344 92.1141 7.48583 87.8406 7.48583L 87.8406 9.48583ZM 105.234 5.65327C 113.144 1.9505 117.02 1.07479 121.779 1.07479L 121.779 -0.925207C 116.623 -0.925207 112.447 0.0682113 104.386 3.84192L 105.234 5.65327ZM 121.779 1.07479C 126.977 1.06616 133.015 2.69624 139.322 5.65327L 140.17 3.84192C 133.701 0.81776 127.239 -0.916577 121.779 -0.925207L 121.779 1.07479ZM 139.322 5.65327C 146.067 8.81058 152.661 6.98318 155.191 5.62933L 154.248 3.86585C 152.12 5.00417 146.203 6.66579 140.17 3.84192L 139.322 5.65327Z"/>
<path id="path3_stroke" d="M 0.423972 3.84192C -0.0762189 3.60777 -0.671522 3.82343 -0.905675 4.32362C -1.13983 4.82381 -0.924163 5.41912 -0.423972 5.65327L 0.423972 3.84192ZM 16.9692 8.48583L 17.1234 7.49779L 16.8366 7.49466L 16.9692 8.48583ZM 50.9076 0.0747933L 50.9076 1.07479L 50.9924 1.07119L 50.9076 0.0747933ZM 71.8696 4.74759L 72.3594 3.87574L 71.8696 4.74759ZM 155.191 5.62933C 155.678 5.3688 155.862 4.76283 155.601 4.27586C 155.341 3.78889 154.735 3.60532 154.248 3.86585L 155.191 5.62933ZM -0.423972 5.65327C 7.71256 9.46221 14.5596 9.81702 17.1018 9.47701L 16.8366 7.49466C 14.7206 7.77768 8.25846 7.50946 0.423972 3.84192L -0.423972 5.65327ZM 16.815 9.47388C 19.0605 9.82427 25.2535 9.45013 33.3642 5.65327L 32.5163 3.84192C 24.656 7.52154 18.8707 7.77044 17.1234 7.49779L 16.815 9.47388ZM 33.3642 5.65327C 41.2162 1.97756 48.3914 1.07479 50.9076 1.07479L 50.9076 -0.925207C 48.1002 -0.925207 40.6353 0.0411499 32.5163 3.84192L 33.3642 5.65327ZM 50.9924 1.07119C 54.5188 0.77105 63.619 1.25978 71.3798 5.61945L 72.3594 3.87574C 64.1492 -0.736374 54.6166 -1.2445 50.8228 -0.921604L 50.9924 1.07119ZM 71.3798 5.61945C 77.025 8.79065 84.269 9.48583 87.8406 9.48583L 87.8406 7.48583C 84.408 7.48583 77.5673 6.80129 72.3594 3.87574L 71.3798 5.61945ZM 87.8406 9.48583C 92.2633 9.48583 97.0631 9.47823 105.234 5.65327L 104.386 3.84192C 96.5856 7.49344 92.1141 7.48583 87.8406 7.48583L 87.8406 9.48583ZM 105.234 5.65327C 113.144 1.9505 117.02 1.07479 121.779 1.07479L 121.779 -0.925207C 116.623 -0.925207 112.447 0.0682111 104.386 3.84192L 105.234 5.65327ZM 121.779 1.07479C 126.977 1.06616 133.015 2.69624 139.322 5.65327L 140.17 3.84192C 133.701 0.817759 127.239 -0.916577 121.779 -0.925207L 121.779 1.07479ZM 139.322 5.65327C 146.067 8.81058 152.661 6.98318 155.191 5.62933L 154.248 3.86585C 152.12 5.00417 146.203 6.66579 140.17 3.84192L 139.322 5.65327Z"/>
</defs>
</svg>
