<svg width="626" height="367" viewBox="0 0 626 367" version="1.1" xmlns="http://www.w3.org/2000/svg" xmlns:xlink="http://www.w3.org/1999/xlink">
<title>inicio</title>
<desc>Created using Figma</desc>
<g id="Canvas" transform="translate(-2329 -1128)">
<g id="patron/inicio">
<mask id="mask0_alpha" mask-type="alpha">
<g id="Rectangle 5">
<use xlink:href="#path0_fill" transform="translate(2329 1071)" fill="#C4C4C4"/>
</g>
</mask>
<g id="Group 2" opacity="0.75" mask="url(#mask0_alpha)">
<g id="Vector">
<use xlink:href="#path1_stroke" transform="translate(2324.38 1129.57)" fill="#FFFFFF"/>
</g>
<g id="Vector">
<use xlink:href="#path1_stroke" transform="translate(2324.38 1152.2)" fill="#FFFFFF"/>
</g>
<g id="Vector">
<use xlink:href="#path1_stroke" transform="translate(2324.38 1175.8)" fill="#FFFFFF"/>
</g>
<g id="Vector">
<use xlink:href="#path1_stroke" transform="translate(2324.38 1198.43)" fill="#FFFFFF"/>
</g>
<g id="Vector">
<use xlink:href="#path2_stroke" transform="translate(2324.38 1222.03)" fill="#FFFFFF"/>
</g>
<g id="Vector">
<use xlink:href="#path1_stroke" transform="translate(2324.38 1244.43)" fill="#FFFFFF"/>
</g>
<g id="Vector">
<use xlink:href="#path1_stroke" transform="translate(2324.38 1267.05)" fill="#FFFFFF"/>
</g>
<g id="Vector">
<use xlink:href="#path1_stroke" transform="translate(2324.38 1290.65)" fill="#FFFFFF"/>
</g>
<g id="Vector">
<use xlink:href="#path1_stroke" transform="translate(2324.38 1313.28)" fill="#FFFFFF"/>
</g>
<g id="Vector">
<use xlink:href="#path2_stroke" transform="translate(2324.38 1336.88)" fill="#FFFFFF"/>
</g>
<g id="Vector">
<use xlink:href="#path3_stroke" transform="translate(2324.38 1359.28)" fill="#FFFFFF"/>
</g>
<g id="Vector">
<use xlink:href="#path1_stroke" transform="translate(2324.38 1381.9)" fill="#FFFFFF"/>
</g>
<g id="Vector">
<use xlink:href="#path1_stroke" transform="translate(2324.38 1405.51)" fill="#FFFFFF"/>
</g>
<g id="Vector">
<use xlink:href="#path1_stroke" transform="translate(2324.38 1428.13)" fill="#FFFFFF"/>
</g>
<g id="Vector">
<use xlink:href="#path2_stroke" transform="translate(2324.38 1451.73)" fill="#FFFFFF"/>
</g>
<g id="Vector">
<use xlink:href="#path1_stroke" transform="translate(2324.38 1474.13)" fill="#FFFFFF"/>
</g>
</g>
</g>
</g>
<defs>
<path id="path0_fill" d="M 0 0L 638 7.69355L 638 424L 0 424L 0 0Z"/>
<path id="path1_stroke" d="M 0.615148 17.2009C -0.140412 16.8611 -1.02833 17.1982 -1.36806 17.9538C -1.7078 18.7093 -1.37071 19.5972 -0.615148 19.937L 0.615148 17.2009ZM 69.098 33.19L 69.3203 31.7066L 68.9068 31.7022L 69.098 33.19ZM 207.294 0.292534L 207.294 1.79253L 207.416 1.78755L 207.294 0.292534ZM 292.65 18.5689L 291.938 19.889L 292.65 18.5689ZM 630.697 19.9031C 631.433 19.5244 631.724 18.6201 631.345 17.8833C 630.966 17.1465 630.062 16.8561 629.325 17.2348L 630.697 19.9031ZM -0.615148 19.937C 32.1233 34.6578 59.4988 35.9356 69.2891 34.6778L 68.9068 31.7022C 59.7291 32.8813 32.9101 31.7222 0.615148 17.2009L -0.615148 19.937ZM 68.8756 34.6734C 77.3633 35.9456 102.045 34.6411 134.747 19.937L 133.516 17.2009C 101.184 31.739 77.091 32.8713 69.3203 31.7066L 68.8756 34.6734ZM 134.747 19.937C 167.067 5.40403 196.664 1.79253 207.294 1.79253L 207.294 -1.20747C 196.246 -1.20747 166.229 2.49159 133.516 17.2009L 134.747 19.937ZM 207.416 1.78755C 222.129 0.584732 259.751 2.52184 291.938 19.889L 293.363 17.2488C 260.516 -0.474661 222.266 -2.43652 207.172 -1.20248L 207.416 1.78755ZM 291.938 19.889C 314.356 31.9851 343.325 34.69 357.684 34.69L 357.684 31.69C 343.522 31.69 315.138 28.9984 293.363 17.2488L 291.938 19.889ZM 357.684 34.69C 375.495 34.69 394.609 34.6799 427.397 19.937L 426.166 17.2009C 393.921 31.7002 375.282 31.69 357.684 31.69L 357.684 34.69ZM 427.397 19.937C 459.801 5.36633 475.98 1.79253 495.88 1.79253L 495.88 -1.20747C 475.409 -1.20747 458.795 2.52928 426.166 17.2009L 427.397 19.937ZM 495.88 1.79253C 517.391 1.78055 542.532 8.28727 568.427 19.937L 569.657 17.2009C 543.526 5.45679 517.77 -1.19548 495.88 -1.20747L 495.88 1.79253ZM 568.427 19.937C 594.957 31.8663 620.916 24.929 630.697 19.9031L 629.325 17.2348C 620.138 21.9563 595.154 28.6653 569.657 17.2009L 568.427 19.937Z"/>
<path id="path2_stroke" d="M 0.615148 17.2009C -0.140412 16.8611 -1.02832 17.1982 -1.36806 17.9538C -1.7078 18.7093 -1.37071 19.5972 -0.615148 19.937L 0.615148 17.2009ZM 69.098 33.19L 69.3203 31.7066L 68.9068 31.7022L 69.098 33.19ZM 207.294 0.292534L 207.294 1.79253L 207.416 1.78755L 207.294 0.292534ZM 292.65 18.5689L 293.363 17.2488L 292.65 18.5689ZM 630.697 19.9031C 631.433 19.5244 631.724 18.6201 631.345 17.8833C 630.966 17.1465 630.062 16.8561 629.325 17.2348L 630.697 19.9031ZM -0.615148 19.937C 32.1233 34.6578 59.4988 35.9356 69.2891 34.6778L 68.9068 31.7022C 59.7291 32.8813 32.9101 31.7222 0.615148 17.2009L -0.615148 19.937ZM 68.8756 34.6734C 77.3633 35.9456 102.045 34.6411 134.747 19.937L 133.516 17.2009C 101.184 31.739 77.091 32.8713 69.3203 31.7066L 68.8756 34.6734ZM 134.747 19.937C 167.067 5.40403 196.664 1.79253 207.294 1.79253L 207.294 -1.20747C 196.246 -1.20747 166.229 2.49159 133.516 17.2009L 134.747 19.937ZM 207.416 1.78755C 222.129 0.584732 259.751 2.52184 291.938 19.889L 293.363 17.2488C 260.516 -0.47466 222.266 -2.43652 207.172 -1.20248L 207.416 1.78755ZM 291.938 19.889C 314.356 31.9852 343.325 34.69 357.684 34.69L 357.684 31.69C 343.522 31.69 315.138 28.9984 293.363 17.2488L 291.938 19.889ZM 357.684 34.69C 375.495 34.69 394.609 34.6799 427.397 19.937L 426.166 17.2009C 393.921 31.7002 375.282 31.69 357.684 31.69L 357.684 34.69ZM 427.397 19.937C 459.801 5.36633 475.98 1.79253 495.88 1.79253L 495.88 -1.20747C 475.408 -1.20747 458.795 2.52928 426.166 17.2009L 427.397 19.937ZM 495.88 1.79253C 517.391 1.78055 542.532 8.28727 568.427 19.937L 569.657 17.2009C 543.526 5.45679 517.77 -1.19548 495.88 -1.20747L 495.88 1.79253ZM 568.427 19.937C 594.957 31.8663 620.916 24.929 630.697 19.9031L 629.325 17.2348C 620.138 21.9563 595.154 28.6653 569.657 17.2009L 568.427 19.937Z"/>
<path id="path3_stroke" d="M 0.615148 17.2009C -0.140412 16.8611 -1.02833 17.1982 -1.36806 17.9538C -1.7078 18.7093 -1.37071 19.5972 -0.615148 19.937L 0.615148 17.2009ZM 69.098 33.19L 69.3203 31.7066L 68.9068 31.7022L 69.098 33.19ZM 207.294 0.292534L 207.294 1.79253L 207.416 1.78755L 207.294 0.292534ZM 292.65 18.5689L 291.938 19.889L 291.938 19.889L 292.65 18.5689ZM 630.697 19.9031C 631.433 19.5244 631.724 18.6201 631.345 17.8833C 630.966 17.1465 630.062 16.8561 629.325 17.2348L 630.697 19.9031ZM -0.615148 19.937C 32.1233 34.6578 59.4988 35.9356 69.2891 34.6778L 68.9068 31.7022C 59.7291 32.8813 32.9101 31.7222 0.615148 17.2009L -0.615148 19.937ZM 68.8756 34.6734C 77.3633 35.9456 102.045 34.6411 134.747 19.937L 133.516 17.2009C 101.184 31.739 77.091 32.8713 69.3203 31.7066L 68.8756 34.6734ZM 134.747 19.937C 167.067 5.40403 196.664 1.79253 207.294 1.79253L 207.294 -1.20747C 196.246 -1.20747 166.229 2.49159 133.516 17.2009L 134.747 19.937ZM 207.416 1.78755C 222.129 0.584732 259.751 2.52183 291.938 19.889L 293.363 17.2488C 260.516 -0.474661 222.266 -2.43652 207.172 -1.20248L 207.416 1.78755ZM 291.938 19.889C 314.356 31.9851 343.325 34.69 357.684 34.69L 357.684 31.69C 343.521 31.69 315.138 28.9984 293.363 17.2488L 291.938 19.889ZM 357.684 34.69C 375.495 34.69 394.609 34.6799 427.397 19.937L 426.166 17.2009C 393.921 31.7002 375.282 31.69 357.684 31.69L 357.684 34.69ZM 427.397 19.937C 459.801 5.36633 475.98 1.79253 495.88 1.79253L 495.88 -1.20747C 475.408 -1.20747 458.795 2.52928 426.166 17.2009L 427.397 19.937ZM 495.88 1.79253C 517.391 1.78055 542.532 8.28727 568.427 19.937L 569.657 17.2009C 543.526 5.45679 517.77 -1.19548 495.88 -1.20747L 495.88 1.79253ZM 568.427 19.937C 594.957 31.8663 620.916 24.929 630.697 19.9031L 629.325 17.2348C 620.138 21.9563 595.154 28.6653 569.657 17.2009L 568.427 19.937Z"/>
</defs>
</svg>
