<svg width="75" height="213" viewBox="0 0 75 213" version="1.1" xmlns="http://www.w3.org/2000/svg" xmlns:xlink="http://www.w3.org/1999/xlink">
<title>Mask Group</title>
<desc>Created using Figma</desc>
<g id="Canvas" transform="matrix(3 0 0 3 -14352 -4062)">
<g id="Mask Group">
<mask id="mask0_alpha" mask-type="alpha">
<g id="Rectangle 4">
<use xlink:href="#path0_fill" transform="matrix(0.00938206 0.999956 -0.999956 0.00938206 4809.56 1344.1)" fill="#C4C4C4"/>
</g>
</mask>
<g id="Group 2" opacity="0.3" mask="url(#mask0_alpha)">
<g id="Vector">
<use xlink:href="#path1_stroke" transform="matrix(0.00938206 0.999956 -0.999956 0.00938206 4806.93 1354.54)" fill="#2F80ED"/>
</g>
<g id="Vector">
<use xlink:href="#path1_stroke" transform="matrix(0.00938206 0.999956 -0.999956 0.00938206 4803.69 1354.57)" fill="#2F80ED"/>
</g>
<g id="Vector">
<use xlink:href="#path1_stroke" transform="matrix(0.00938206 0.999956 -0.999956 0.00938206 4800.31 1354.6)" fill="#2F80ED"/>
</g>
<g id="Vector">
<use xlink:href="#path2_stroke" transform="matrix(0.00938206 0.999956 -0.999956 0.00938206 4797.07 1354.64)" fill="#2F80ED"/>
</g>
<g id="Vector">
<use xlink:href="#path3_stroke" transform="matrix(0.00938206 0.999956 -0.999956 0.00938206 4793.68 1354.67)" fill="#2F80ED"/>
</g>
<g id="Vector">
<use xlink:href="#path1_stroke" transform="matrix(0.00938206 0.999956 -0.999956 0.00938206 4790.48 1354.7)" fill="#2F80ED"/>
</g>
<g id="Vector">
<use xlink:href="#path1_stroke" transform="matrix(0.00938206 0.999956 -0.999956 0.00938206 4787.24 1354.73)" fill="#2F80ED"/>
</g>
<g id="Vector">
<use xlink:href="#path1_stroke" transform="matrix(0.00938206 0.999956 -0.999956 0.00938206 4783.85 1354.76)" fill="#2F80ED"/>
</g>
</g>
</g>
</g>
<defs>
<path id="path0_fill" d="M 0 0L 80.3378 0L 80.3378 24.7176L 0 24.7176L 0 0Z"/>
<path id="path1_stroke" d="M 0.177453 2.19271C -0.080713 2.09471 -0.369446 2.22454 -0.467451 2.48271C -0.565456 2.74087 -0.435619 3.02961 -0.177453 3.12761L 0.177453 2.19271ZM 11.725 4.75476L 11.7878 4.25872L 11.6711 4.25768L 11.725 4.75476ZM 35.175 0.041908L 35.175 0.541908L 35.2095 0.540721L 35.175 0.041908ZM 49.6589 2.66016L 49.4516 3.11517L 49.6589 2.66016ZM 107.104 3.11885C 107.357 3.00895 107.473 2.71449 107.363 2.46116C 107.253 2.20783 106.959 2.09156 106.706 2.20147L 107.104 3.11885ZM -0.177453 3.12761C 5.40687 5.24752 10.0841 5.43568 11.7789 5.25185L 11.6711 4.25768C 10.1473 4.42295 5.62844 4.26201 0.177453 2.19271L -0.177453 3.12761ZM 11.6622 5.25081C 13.1421 5.43806 17.364 5.24352 22.9378 3.12761L 22.5829 2.19271C 17.1213 4.26601 13.0668 4.42056 11.7878 4.25872L 11.6622 5.25081ZM 22.9378 3.12761C 28.3965 1.05536 33.3941 0.541908 35.175 0.541908L 35.175 -0.458092C 33.2776 -0.458092 28.1594 0.0757567 22.5829 2.19271L 22.9378 3.12761ZM 35.2095 0.540721C 37.6863 0.369763 44.0335 0.647017 49.4516 3.11517L 49.8661 2.20515C 44.2489 -0.353741 37.7216 -0.635048 35.1406 -0.456905L 35.2095 0.540721ZM 49.4516 3.11517C 53.283 4.85226 58.2545 5.25437 60.6942 5.25476L 60.6942 4.25476C 58.2942 4.25516 53.5337 3.88418 49.8661 2.20515L 49.4516 3.11517ZM 60.6942 5.25476C 63.6985 5.25476 66.9917 5.24656 72.5966 3.12761L 72.2417 2.19271C 66.8113 4.26297 63.6985 4.25476 60.6942 4.25476L 60.6942 5.25476ZM 72.5966 3.12761C 78.0723 1.04685 80.7655 0.539746 84.1442 0.541908L 84.1442 -0.458092C 80.6726 -0.45593 77.8013 0.0842683 72.2417 2.19271L 72.5966 3.12761ZM 84.1442 0.541908C 87.7729 0.539024 92.0024 1.46376 96.3815 3.12761L 96.7364 2.19271C 92.2872 0.505195 87.8801 -0.455208 84.1442 -0.458092L 84.1442 0.541908ZM 96.3815 3.12761C 100.945 4.86001 105.405 3.85587 107.104 3.11885L 106.706 2.20147C 105.186 2.86086 101.001 3.81168 96.7364 2.19271L 96.3815 3.12761Z"/>
<path id="path2_stroke" d="M 0.177453 2.19271C -0.080713 2.09471 -0.369446 2.22454 -0.467451 2.48271C -0.565456 2.74087 -0.435619 3.02961 -0.177453 3.12761L 0.177453 2.19271ZM 11.725 4.75476L 11.7878 4.25872L 11.6711 4.25768L 11.725 4.75476ZM 35.175 0.041908L 35.175 0.541908L 35.2095 0.540721L 35.175 0.041908ZM 49.6589 2.66016L 49.8661 2.20515L 49.8661 2.20515L 49.6589 2.66016ZM 107.104 3.11885C 107.357 3.00895 107.473 2.71449 107.363 2.46116C 107.253 2.20783 106.959 2.09156 106.706 2.20147L 107.104 3.11885ZM -0.177453 3.12761C 5.40687 5.24752 10.0841 5.43568 11.7789 5.25185L 11.6711 4.25768C 10.1473 4.42295 5.62844 4.26201 0.177453 2.19271L -0.177453 3.12761ZM 11.6622 5.25081C 13.1421 5.43806 17.364 5.24352 22.9378 3.12761L 22.5829 2.19271C 17.1213 4.26601 13.0668 4.42056 11.7878 4.25872L 11.6622 5.25081ZM 22.9378 3.12761C 28.3965 1.05536 33.3941 0.541908 35.175 0.541908L 35.175 -0.458092C 33.2776 -0.458092 28.1594 0.0757567 22.5829 2.19271L 22.9378 3.12761ZM 35.2095 0.540721C 37.6863 0.369763 44.0335 0.647018 49.4516 3.11517L 49.8661 2.20515C 44.2489 -0.353741 37.7216 -0.635048 35.1406 -0.456905L 35.2095 0.540721ZM 49.4516 3.11517C 53.283 4.85226 58.2545 5.25437 60.6942 5.25476L 60.6942 4.25476C 58.2942 4.25516 53.5337 3.88418 49.8661 2.20515L 49.4516 3.11517ZM 60.6942 5.25476C 63.6985 5.25476 66.9917 5.24656 72.5966 3.12761L 72.2417 2.19271C 66.8113 4.26297 63.6985 4.25476 60.6942 4.25476L 60.6942 5.25476ZM 72.5966 3.12761C 78.0723 1.04685 80.7655 0.539746 84.1442 0.541908L 84.1442 -0.458092C 80.6726 -0.45593 77.8013 0.0842683 72.2417 2.19271L 72.5966 3.12761ZM 84.1442 0.541908C 87.7729 0.539024 92.0024 1.46376 96.3815 3.12761L 96.7364 2.19271C 92.2872 0.505195 87.8801 -0.455208 84.1442 -0.458092L 84.1442 0.541908ZM 96.3815 3.12761C 100.945 4.86001 105.405 3.85587 107.104 3.11885L 106.706 2.20147C 105.186 2.86086 101.001 3.81168 96.7364 2.19271L 96.3815 3.12761Z"/>
<path id="path3_stroke" d="M 0.177453 2.19271C -0.080713 2.09471 -0.369446 2.22454 -0.467451 2.48271C -0.565456 2.74087 -0.435619 3.02961 -0.177453 3.12761L 0.177453 2.19271ZM 11.725 4.75476L 11.7878 4.25872L 11.6711 4.25768L 11.725 4.75476ZM 35.175 0.041908L 35.175 0.541908L 35.2095 0.540721L 35.175 0.041908ZM 49.6589 2.66016L 49.8661 2.20515L 49.6589 2.66016ZM 107.104 3.11885C 107.357 3.00895 107.473 2.71449 107.363 2.46116C 107.253 2.20783 106.959 2.09156 106.706 2.20147L 107.104 3.11885ZM -0.177453 3.12761C 5.40687 5.24752 10.0841 5.43568 11.7789 5.25185L 11.6711 4.25768C 10.1473 4.42295 5.62844 4.26201 0.177453 2.19271L -0.177453 3.12761ZM 11.6622 5.25081C 13.1421 5.43807 17.364 5.24352 22.9378 3.12761L 22.5829 2.19271C 17.1213 4.26601 13.0668 4.42057 11.7878 4.25872L 11.6622 5.25081ZM 22.9378 3.12761C 28.3965 1.05536 33.3941 0.541908 35.175 0.541908L 35.175 -0.458092C 33.2776 -0.458092 28.1594 0.0757567 22.5829 2.19271L 22.9378 3.12761ZM 35.2095 0.540721C 37.6863 0.369763 44.0335 0.647017 49.4516 3.11517L 49.8661 2.20515C 44.2489 -0.353741 37.7216 -0.635048 35.1406 -0.456905L 35.2095 0.540721ZM 49.4516 3.11517C 53.283 4.85226 58.2545 5.25437 60.6942 5.25476L 60.6942 4.25476C 58.2942 4.25516 53.5337 3.88418 49.8661 2.20515L 49.4516 3.11517ZM 60.6942 5.25476C 63.6985 5.25476 66.9917 5.24656 72.5966 3.12761L 72.2417 2.19271C 66.8113 4.26297 63.6985 4.25476 60.6942 4.25476L 60.6942 5.25476ZM 72.5966 3.12761C 78.0723 1.04685 80.7655 0.539746 84.1442 0.541908L 84.1442 -0.458092C 80.6726 -0.45593 77.8013 0.0842683 72.2417 2.19271L 72.5966 3.12761ZM 84.1442 0.541908C 87.7729 0.539024 92.0024 1.46376 96.3815 3.12761L 96.7364 2.19271C 92.2872 0.505195 87.8801 -0.455208 84.1442 -0.458092L 84.1442 0.541908ZM 96.3815 3.12761C 100.945 4.86001 105.405 3.85587 107.104 3.11885L 106.706 2.20147C 105.186 2.86086 101.001 3.81168 96.7364 2.19271L 96.3815 3.12761Z"/>
</defs>
</svg>


